<svg xmlns="http://www.w3.org/2000/svg" viewBox="0 0 96 96" role="img" aria-label="Mira">
  <defs>
    <linearGradient id="bg" x1="14" y1="12" x2="84" y2="86" gradientUnits="userSpaceOnUse">
      <stop offset="0" stop-color="#08111f"/>
      <stop offset=".52" stop-color="#0b1f35"/>
      <stop offset="1" stop-color="#05070d"/>
    </linearGradient>
    <linearGradient id="line" x1="20" y1="28" x2="76" y2="70" gradientUnits="userSpaceOnUse">
      <stop offset="0" stop-color="#7dd3fc"/>
      <stop offset=".45" stop-color="#0a84ff"/>
      <stop offset="1" stop-color="#34d399"/>
    </linearGradient>
    <filter id="glow" x="-30%" y="-30%" width="160%" height="160%">
      <feGaussianBlur stdDeviation="2.8" result="blur"/>
      <feColorMatrix in="blur" values="0 0 0 0 0.04 0 0 0 0 0.52 0 0 0 0 1 0 0 0 .72 0"/>
      <feMerge>
        <feMergeNode/>
        <feMergeNode in="SourceGraphic"/>
      </feMerge>
    </filter>
  </defs>
  <rect x="6" y="6" width="84" height="84" rx="24" fill="url(#bg)"/>
  <rect x="7.5" y="7.5" width="81" height="81" rx="22.5" fill="none" stroke="rgba(255,255,255,.16)" stroke-width="3"/>
  <path d="M24 64V34c0-3.4 4.2-5 6.5-2.4L48 51.4l17.5-19.8C67.8 29 72 30.6 72 34v30" fill="none" stroke="url(#line)" stroke-width="8" stroke-linecap="round" stroke-linejoin="round" filter="url(#glow)"/>
  <path d="M34 64V49l10.6 12.1c1.8 2.1 5 2.1 6.8 0L62 49v15" fill="none" stroke="#e8f6ff" stroke-width="4.5" stroke-linecap="round" stroke-linejoin="round" opacity=".92"/>
  <circle cx="25" cy="27" r="3" fill="#7dd3fc" opacity=".9"/>
  <circle cx="72" cy="70" r="3" fill="#34d399" opacity=".9"/>
</svg>
