<svg xmlns="http://www.w3.org/2000/svg" viewBox="0 0 96 96" role="img" aria-label="Mira">
  <defs>
    <linearGradient id="bg" x1="12" y1="10" x2="86" y2="88" gradientUnits="userSpaceOnUse">
      <stop offset="0" stop-color="#07111f"/>
      <stop offset=".58" stop-color="#0b1f3d"/>
      <stop offset="1" stop-color="#062f3a"/>
    </linearGradient>
    <linearGradient id="a" x1="20" y1="68" x2="76" y2="28" gradientUnits="userSpaceOnUse">
      <stop offset="0" stop-color="#00c2ff"/>
      <stop offset=".5" stop-color="#2f7dff"/>
      <stop offset="1" stop-color="#44f0b5"/>
    </linearGradient>
    <filter id="softGlow" x="-30%" y="-30%" width="160%" height="160%">
      <feGaussianBlur stdDeviation="2.6" result="blur"/>
      <feColorMatrix in="blur" type="matrix" values="0 0 0 0 0.05 0 0 0 0 0.65 0 0 0 0 1 0 0 0 .8 0"/>
      <feMerge>
        <feMergeNode/>
        <feMergeNode in="SourceGraphic"/>
      </feMerge>
    </filter>
  </defs>
  <rect x="6" y="6" width="84" height="84" rx="22" fill="url(#bg)"/>
  <rect x="8" y="8" width="80" height="80" rx="20" fill="none" stroke="#ffffff" stroke-opacity=".14" stroke-width="2"/>
  <path d="M23 64V36c0-4.1 5.1-6 7.8-2.9L48 52.9l17.2-19.8C67.9 30 73 31.9 73 36v28" fill="none" stroke="url(#a)" stroke-width="6" stroke-linecap="round" stroke-linejoin="round" filter="url(#softGlow)"/>
  <path d="M34 64V50l9.8 11.2c2.2 2.5 6.1 2.5 8.4 0L62 50v14" fill="none" stroke="#dff9ff" stroke-opacity=".82" stroke-width="3.5" stroke-linecap="round" stroke-linejoin="round"/>
  <path d="M28 24c11.5-6.3 27.6-6.2 39.5 1.3" fill="none" stroke="#44f0b5" stroke-opacity=".42" stroke-width="2.5" stroke-linecap="round"/>
  <path d="M24 74c13.1 7.2 33.6 7 47.6-1.1" fill="none" stroke="#00c2ff" stroke-opacity=".32" stroke-width="2.5" stroke-linecap="round"/>
  <circle cx="48" cy="48" r="4" fill="#ffffff"/>
  <circle cx="48" cy="48" r="9.5" fill="none" stroke="#ffffff" stroke-opacity=".18" stroke-width="2"/>
</svg>
